<?xml version="1.0" encoding="UTF-8"?>
<svg width="24px" height="40px" viewBox="0 0 24 40" version="1.1" xmlns="http://www.w3.org/2000/svg" xmlns:xlink="http://www.w3.org/1999/xlink">
    <!-- Generator: Sketch 59.1 (86144) - https://sketch.com -->
    <title>$</title>
    <desc>Created with Sketch.</desc>
    <g id="Logos-&amp;-Graphics" stroke="none" stroke-width="1" fill="none" fill-rule="evenodd">
        <g id="Image" transform="translate(-222.000000, -267.000000)" fill="#000000" fill-rule="nonzero" stroke="#000000" stroke-width="2">
            <g id="$">
                <path d="M231.858,301.473 C229.134653,301.186332 227.070674,300.419506 225.666,299.1725 C224.261326,297.925494 223.559,295.940347 223.559,293.217 L223.559,292.056 L231.299,292.056 L231.299,292.873 C231.299,294.163006 231.542664,295.051664 232.03,295.539 C232.517336,296.026336 233.162329,296.27 233.965,296.27 C234.796337,296.27 235.434164,295.997669 235.8785,295.453 C236.322836,294.908331 236.545,294.249004 236.545,293.475 C236.545,292.500328 236.236836,291.726336 235.6205,291.153 C235.004164,290.579664 234.230171,290.085169 233.2985,289.6695 C232.366829,289.253831 231.356339,288.838169 230.267,288.4225 C229.177661,288.006831 228.167171,287.46217 227.2355,286.7885 C226.303829,286.11483 225.529836,285.233339 224.9135,284.144 C224.297164,283.054661 223.989,281.635675 223.989,279.887 C223.989,274.526307 226.611974,271.416004 231.858,270.556 L231.858,268.062 L235.814,268.062 L235.814,270.556 C238.680681,270.842668 240.758994,271.709826 242.049,273.1575 C243.339006,274.605174 243.984,276.805319 243.984,279.758 L236.502,279.758 L236.502,279.113 C236.502,278.252996 236.315669,277.500503 235.943,276.8555 C235.570331,276.210497 234.997004,275.888 234.223,275.888 C233.362996,275.888 232.732335,276.167497 232.331,276.7265 C231.929665,277.285503 231.729,277.894663 231.729,278.554 C231.729,279.557338 232.051497,280.345664 232.6965,280.919 C233.341503,281.492336 234.151328,281.986831 235.126,282.4025 C236.100672,282.818169 237.146994,283.219498 238.265,283.6065 C239.383006,283.993502 240.429328,284.530997 241.404,285.219 C242.378672,285.907003 243.188497,286.809994 243.8335,287.928 C244.478503,289.046006 244.801,290.536657 244.801,292.4 C244.801,295.324015 244.041341,297.488326 242.522,298.893 C241.002659,300.297674 238.766681,301.157665 235.814,301.473 L235.814,305.343 L231.858,305.343 L231.858,301.473 Z"></path>
            </g>
        </g>
    </g>
</svg>