<?xml version="1.0" encoding="UTF-8"?>
<svg width="466px" height="193px" viewBox="0 0 466 193" version="1.1" xmlns="http://www.w3.org/2000/svg" xmlns:xlink="http://www.w3.org/1999/xlink">
    <!-- Generator: Sketch 59.1 (86144) - https://sketch.com -->
    <title>Werk-Logo</title>
    <desc>Created with Sketch.</desc>
    <defs>
        <linearGradient x1="57.5295166%" y1="49.0760976%" x2="42.9725711%" y2="49.0837611%" id="linearGradient-1">
            <stop stop-color="#D82016" offset="0%"></stop>
            <stop stop-color="#E02614" offset="8.78378378%"></stop>
            <stop stop-color="#FE6C6F" offset="31.920397%"></stop>
            <stop stop-color="#E72812" offset="60.7685811%"></stop>
            <stop stop-color="#E23830" offset="74.3797508%"></stop>
            <stop stop-color="#B40712" offset="88.4792019%"></stop>
            <stop stop-color="#A82F27" offset="100%"></stop>
        </linearGradient>
        <linearGradient x1="50%" y1="0%" x2="50%" y2="100%" id="linearGradient-2">
            <stop stop-color="#BC0E14" offset="0.266575169%"></stop>
            <stop stop-color="#C11219" offset="99.3533573%"></stop>
        </linearGradient>
        <linearGradient x1="0%" y1="37.4719422%" x2="100%" y2="37.4719422%" id="linearGradient-3">
            <stop stop-color="#101010" offset="0%"></stop>
            <stop stop-color="#050505" offset="14.0189448%"></stop>
            <stop stop-color="#3C3D3F" offset="23.1399549%"></stop>
            <stop stop-color="#040404" offset="59.8566633%"></stop>
            <stop stop-color="#828388" offset="62.9602611%"></stop>
            <stop stop-color="#000000" offset="84.3820554%"></stop>
            <stop stop-color="#000000" offset="93.1168177%"></stop>
            <stop stop-color="#302E30" offset="100%"></stop>
        </linearGradient>
        <path d="M8.43622858,52.5263694 C13.3218917,52.0991915 17.9879865,51.8856026 22.4345132,51.8856026 C26.7344285,51.8856026 31.0343439,52.0853388 35.3342592,52.4848112 C37.9054164,52.7236742 39.8717426,54.8811441 39.8717426,57.4633727 L39.8717426,126.885603 L39.8717426,126.885603 L3.87174262,126.885603 L3.87174262,57.5073735 C3.87173523,54.9147426 5.85345137,52.7521945 8.43622858,52.5263694 Z" id="path-4"></path>
        <filter x="-12.5%" y="-6.0%" width="125.0%" height="112.0%" filterUnits="objectBoundingBox" id="filter-5">
            <feMorphology radius="1" operator="erode" in="SourceAlpha" result="shadowSpreadInner1"></feMorphology>
            <feGaussianBlur stdDeviation="2" in="shadowSpreadInner1" result="shadowBlurInner1"></feGaussianBlur>
            <feOffset dx="0" dy="4" in="shadowBlurInner1" result="shadowOffsetInner1"></feOffset>
            <feComposite in="shadowOffsetInner1" in2="SourceAlpha" operator="arithmetic" k2="-1" k3="1" result="shadowInnerInner1"></feComposite>
            <feColorMatrix values="0 0 0 0 0   0 0 0 0 0   0 0 0 0 0  0 0 0 0.5 0" type="matrix" in="shadowInnerInner1"></feColorMatrix>
        </filter>
        <linearGradient x1="57.7037296%" y1="49.0760976%" x2="42.8099751%" y2="49.0837611%" id="linearGradient-6">
            <stop stop-color="#D82016" offset="0%"></stop>
            <stop stop-color="#E02614" offset="8.78378378%"></stop>
            <stop stop-color="#FE6C6F" offset="31.920397%"></stop>
            <stop stop-color="#E72812" offset="60.7685811%"></stop>
            <stop stop-color="#E23830" offset="74.3797508%"></stop>
            <stop stop-color="#B40712" offset="88.4792019%"></stop>
            <stop stop-color="#A82F27" offset="100%"></stop>
        </linearGradient>
        <path d="M4.17863667,90.2366388 C9.70474856,89.9436148 15.3511074,89.7971027 21.1177131,89.7971027 C26.9436437,89.7971027 32.7695742,89.9466448 38.5955048,90.245729 C40.7221469,90.3548914 42.3904404,92.1110265 42.3904404,94.2404684 L42.3904404,191.797103 C42.3904404,194.558526 40.1518641,196.797103 37.3904404,196.797103 L5.39044039,196.797103 C2.62901664,196.797103 0.390440392,194.558526 0.390440392,191.797103 L0.390440392,94.231024 C0.39044373,92.1041933 2.05478971,90.3492566 4.17863667,90.2366388 Z" id="path-7"></path>
        <filter x="-8.3%" y="-3.3%" width="116.7%" height="106.5%" filterUnits="objectBoundingBox" id="filter-8">
            <feGaussianBlur stdDeviation="2" in="SourceAlpha" result="shadowBlurInner1"></feGaussianBlur>
            <feOffset dx="0" dy="3" in="shadowBlurInner1" result="shadowOffsetInner1"></feOffset>
            <feComposite in="shadowOffsetInner1" in2="SourceAlpha" operator="arithmetic" k2="-1" k3="1" result="shadowInnerInner1"></feComposite>
            <feColorMatrix values="0 0 0 0 0   0 0 0 0 0   0 0 0 0 0  0 0 0 0.5 0" type="matrix" in="shadowInnerInner1"></feColorMatrix>
        </filter>
    </defs>
    <g id="Werk-Logo" stroke="none" stroke-width="1" fill="none" fill-rule="evenodd">
        <path d="M85.0798722,102.548784 C96.9205132,66.902415 104.814155,49.0794976 108.761036,49.0794976 C109.225375,49.0794976 109.747748,49.1375527 110.328172,49.2536646 C112.185527,49.3697766 114.275021,48.6150602 116.596715,46.9894929 C119.614917,44.4350299 123.126427,42.4611563 127.13135,41.0678129 C131.136273,39.6744695 135.054073,39.1519735 138.884869,39.5003094 C147.823392,40.3130931 153.453416,45.0155566 155.775111,53.6078411 L155.775111,54.1303423 C155.194687,55.7559096 154.614272,57.091177 154.033849,58.1361846 L154.730353,58.1361846 C151.949157,61.5856772 149.274612,66.0215027 146.706644,71.4437844 L146.372296,72.1566328 C144.083768,77.0830971 142.26434,81.071138 140.913974,84.1208399 L140.277878,85.5674963 C138.884862,88.760575 136.911451,92.7954048 134.357588,97.6721069 C131.803724,102.548809 128.872629,108.528485 125.564214,115.611314 C122.2558,122.694143 118.802331,129.718811 115.203705,136.685528 C106.613436,153.405649 98.0813377,166.526103 89.6071534,176.047283 C85.312019,181.272321 79.5078702,183.826746 72.1945331,183.710634 C69.0602458,183.594522 66.0420885,182.78175 63.1399706,181.272295 C60.2378527,179.762839 57.9742347,177.440635 56.3490487,174.305613 L52.6923984,163.333088 C51.2993818,164.512071 49.7085627,165.98784 47.9198998,167.760433 L47.4686123,168.209765 C45.7770922,169.901682 44.0003083,171.636231 42.1382213,173.413448 L41.200069,174.305613 C36.0923415,179.182315 32.1455204,181.736739 29.3594872,181.968963 C26.573454,182.201187 24.1937531,182.230215 22.2203129,182.056047 C20.2468727,181.881879 18.3895451,181.446465 16.6482744,180.749794 C12.7013941,179.240338 10.1475686,176.337583 8.98672148,172.041441 C7.01328132,152.186297 8,126.816216 11.9468669,95.9304363 C12.9916294,88.3831593 13.9202932,80.9521058 14.7328862,73.6370528 C16.6660521,63.5139862 20.2700882,56.1765529 25.5450992,51.6245431 L25.8769632,51.3436693 C30.5203518,47.395863 35.0475878,46.2347608 39.458807,47.8603282 C41.4322472,48.5569999 42.9413258,49.718102 43.9860883,51.3436693 C45.0308507,52.9692367 45.3790996,54.9431103 45.0308455,57.2653493 L45.0709763,58.5722883 C45.2546261,65.0015254 45.1832075,69.848903 44.8567193,73.1145516 L44.7261241,74.8440373 C44.3740008,79.7044735 44.2398605,83.3874952 44.3236996,85.8931875 L44.3343407,86.177081 C44.4504254,88.9637679 44.4214046,91.2569445 44.2472776,93.0566798 C44.0731505,94.8564151 43.9570675,96.5400131 43.8990252,98.1075245 C43.8409828,99.6750359 43.8990243,100.952248 44.0731514,101.9392 C44.2472784,102.926151 44.6825896,103.129344 45.3790979,102.548784 L45.9076699,101.431788 C48.3490565,96.3166769 50.4364881,92.5670888 52.1700198,90.1829233 L53.5847977,88.2453114 C55.0213377,86.2859335 56.523167,84.2612538 58.0903107,82.1712387 C61.3406827,79.2684398 64.1847156,78.1653928 66.6224946,78.8620646 C67.7575452,79.0684858 68.9384406,79.4354518 70.1652089,79.9629716 L70.6273973,80.1683175 C72.0204139,80.8069332 73.8777415,81.3584567 76.1994358,81.8229046 C77.7085371,83.100136 78.6952424,84.4934586 79.1595813,86.002914 C79.5078354,86.3512498 79.8560843,86.6705529 80.2043385,86.9608328 C80.5525926,87.2511127 80.8137793,87.5994433 80.9879064,88.0058351 L81.0637482,88.1947099 C81.2414859,88.6609612 81.5064138,89.4978602 81.8585374,90.7054245 L82.9347334,94.3701875 C83.0105106,94.6266003 83.0870941,94.8854326 83.1644839,95.1466845 C83.535955,96.4006936 83.8702751,97.6175324 84.1674504,98.797224 L85.0798722,102.548784 L85.0798722,102.548784 Z M89.4330272,175.002281 L89.258901,175.524782 L89.2632004,175.649495 C89.2732323,175.759873 89.3008201,175.747329 89.3459641,175.611865 C89.4040065,175.437698 89.4330272,175.234505 89.4330272,175.002281 Z M195.475885,150.270558 C193.270275,151.315566 191.12274,152.128338 189.033215,152.708897 C186.94369,153.289457 184.505948,153.870008 181.719915,154.450568 L179.292089,154.943072 C173.225847,156.150728 168.753331,156.85739 165.87443,157.063074 C166.222684,158.224193 167.963929,159.617516 171.098216,161.243083 C173.187741,161.591419 175.48038,161.272116 177.976201,160.285164 C180.472023,159.298213 183.08389,158.369331 185.811881,157.498491 C188.539871,156.627652 191.20978,156.134183 193.821686,156.018071 C196.433592,155.901959 198.900355,156.888896 201.222049,158.978911 C202.150727,161.068927 202.905267,162.288084 203.48569,162.63642 C203.993561,162.941213 204.456987,163.112658 204.875978,163.150757 L205.052826,163.158921 C205.517165,163.158921 206.039538,163.333086 206.619962,163.681422 C207.200385,164.029758 208.041987,165.365025 209.144792,167.687264 C210.247597,170.009503 209.957389,172.215597 208.274161,174.305613 C206.590932,176.395628 204.008086,178.195336 200.525545,179.704791 C197.043003,181.214247 192.980099,182.433404 188.33671,183.3623 C183.693322,184.291195 179.050003,184.929801 174.406614,185.278137 C163.95899,186.090921 156.007306,185.278149 150.551324,182.839798 C142.657564,180.169223 137.549913,174.886209 135.228219,166.990596 C132.259495,156.711833 133.839296,144.748204 139.967669,131.09936 L140.277878,130.415514 C143.179996,123.913244 147.765274,116.946632 154.033849,109.515467 C159.48983,103.013197 165.584186,98.3107339 172.3171,95.4079351 C180.094776,92.0406885 188.220584,90.4732006 196.694768,90.7054245 C205.749376,90.9376484 212.017857,94.8853956 215.500398,102.548784 C217.241669,106.612703 217.589918,112.302103 216.545155,119.617156 L216.288282,120.898225 C214.464988,129.744796 212.112866,136.052174 209.231855,139.820535 C206.213652,143.652229 201.628375,147.135536 195.475885,150.270558 Z M185.376565,122.752163 C179.224075,121.474932 174.406632,124.958238 170.92409,133.202187 C169.879328,135.408314 169.066747,137.730518 168.486323,140.168869 C172.433204,140.633317 176.612191,138.427223 181.02341,133.550521 C182.648596,131.576618 183.867467,129.573717 184.68006,127.541757 C185.492653,125.509798 185.724819,123.913283 185.376565,122.752163 Z M236.743795,103.942121 C238.368981,99.7620907 240.66162,96.5980874 243.62178,94.4500163 C246.58194,92.3019452 249.425973,90.9666777 252.153964,90.4441739 C254.881955,89.9216701 257.145573,90.2409732 258.944886,91.4020928 C260.744199,92.5632123 261.353634,94.3629206 260.773211,96.8012716 C262.97882,94.5951445 266.171102,92.5632158 270.350152,90.7054245 L271.420588,90.2339533 C275.097987,88.6298991 278.049547,87.5098408 280.275346,86.8737492 C282.713125,86.1770775 284.802618,85.8287469 286.543889,85.8287469 C290.374685,86.0609708 291.477473,88.1509546 289.852287,92.098761 C291.825727,92.4470968 293.276764,93.7243092 294.205442,95.9304363 C295.13412,98.1365634 295.250203,100.574878 294.553694,103.245453 C293.857186,105.916028 292.290066,108.528507 289.852287,111.08297 C287.512019,113.535255 284.396165,115.238454 280.504637,116.192613 L280.014156,116.307982 C275.893149,117.236878 272.468701,119.355889 269.74071,122.66508 C267.01272,125.97427 264.603998,130.067155 262.514473,134.943857 C259.101582,143.022927 256.0232,154.391489 253.279238,169.049873 L253.111658,169.951436 C252.203618,175.287425 248.576555,179.790783 242.230363,183.461638 L241.793455,183.710634 C235.674132,187.224403 230.052693,188.303886 224.928978,186.949115 L224.554961,186.845641 C218.63464,185.220073 216.022773,180.86594 216.719282,173.783111 C216.944818,168.932949 218.375339,162.521483 221.010887,154.548531 L222.841563,149.103625 C224.576857,143.96818 226.011932,139.788197 227.14681,136.563615 L228.056834,133.992586 C229.369234,130.2629 230.291449,127.386952 230.823504,125.364669 L236.743795,103.942121 Z M322.065634,39.3261423 C324.619498,36.1911196 327.695697,34.4494664 331.294323,34.1011306 C334.892949,33.7527947 338.375438,34.3043182 341.741895,35.7557176 C345.108352,37.207117 347.981406,39.413211 350.361142,42.3740658 C352.740879,45.3349206 354.046812,48.6150341 354.278982,52.2145046 L352.711846,57.2653493 C353.988778,58.7748047 355.120587,59.9939619 356.107307,60.9228576 C357.094027,61.8517532 357.645421,63.3031308 357.761506,65.277034 C358.447771,66.8786959 355.640517,73.1582273 349.339659,84.115813 L347.253738,87.7359901 C345.734613,90.3664136 344.170709,93.0595394 342.562013,95.8153925 L340.610075,99.1525269 C337.649915,104.203397 335.241193,108.702667 333.383838,112.650474 C334.498251,112.371805 335.612651,112.130295 336.727059,111.925939 L337.562866,111.779639 C338.955883,111.547415 340.348879,111.257139 341.741895,110.908803 L343.422801,110.481899 C351.093669,108.556506 356.337526,107.566731 359.154516,107.512546 C362.172718,107.45449 364.668502,107.773793 366.641942,108.470464 C371.981839,110.56048 374.767831,113.811566 375,118.22382 C373.374814,122.055514 367.280458,127.396584 356.716749,134.247189 L355.766403,134.838585 C353.760981,136.093106 352.104346,137.173191 350.796458,138.078864 L335.647478,148.877222 C334.834885,150.154453 334.25447,151.373611 333.906216,152.53473 L333.906216,152.708897 C334.138386,153.289457 335.618443,154.102229 338.346434,155.147236 L340.757417,156.078877 C342.485283,156.752872 344.032318,157.371213 345.398546,157.933909 C350.041934,160.023924 354.16288,162.868624 357.761506,166.468095 C358.922353,167.745326 359.676892,169.632117 360.025147,172.128524 C360.373401,174.624931 359.996131,176.918108 358.893326,179.008123 C357.790521,181.098138 355.846132,182.607571 353.060098,183.536467 C350.274065,184.465362 346.385286,184.058976 341.393643,182.317297 C334.080306,179.066163 325.432124,171.809274 315.448839,160.546415 L313.165852,168.558095 C312.791804,169.874022 312.420979,171.180275 312.053378,172.476858 C310.950573,176.366609 309.760722,180.343384 308.48379,184.407302 C306.74252,188.355108 302.679616,190.212872 296.294956,189.980648 C293.741093,189.980648 291.448454,189.458152 289.416971,188.413144 C287.385489,187.368137 286.195638,185.974814 285.847384,184.233135 C284.918706,181.678672 284.454374,179.791881 284.454374,178.572705 C284.454374,177.35353 284.744582,175.93118 285.325006,174.305613 L285.829448,173.019199 C288.208035,166.883882 289.723093,161.942579 290.374665,158.19516 L290.576653,157.04304 C291.161718,153.735596 291.558723,151.768398 291.767675,151.141394 C288.618877,149.116692 286.722948,145.947868 286.079836,141.634834 L286.02151,141.213871 C285.325002,136.801617 286.369749,132.85387 289.155782,129.370511 L291.745916,128.390819 C294.140152,127.476442 295.946698,126.758008 297.165587,126.235504 C297.818564,122.099016 298.879635,117.656436 300.348831,112.907646 L301.259777,110.006859 C303.665569,102.293721 305.580942,95.4763795 307.005938,89.5546835 L307.35197,88.0929187 C308.856428,81.6278051 311.002757,74.3334791 313.791016,66.209738 L314.142892,65.1899505 C317.103052,56.655722 319.74394,48.0345388 322.065634,39.3261423 Z" id="Werk" fill="#FB0000" fill-rule="nonzero"></path>
        <g id="Lipstick-Symbol---All" transform="translate(416.500000, 100.500000) rotate(-163.000000) translate(-416.500000, -100.500000) translate(395.000000, 2.000000)">
            <g id="Lipstick---Red-Lipstick-Gradient">
                <g>
                    <path d="M9.26166177,69.4361128 L35.2616618,69.4361128 C35.2616618,52.9607264 35.2616618,41.8307817 35.2616618,36.0462786 C35.2616618,21.057297 33.3254916,4.84594331 28.8999596,2.6564461 C27.7935842,2.10907554 26.6871937,2.6564461 25.0276192,3.47750756 C22.1411082,4.90558626 20.7352058,6.69760233 18.6659171,8.40387628 C17.0063426,9.77231204 14.7738818,11.6137252 12.5808107,15.5197422 C9.81485326,20.446111 10.054418,30.2781694 9.81485326,36.0462786 C9.81485326,46.0814742 9.6304561,57.2114189 9.26166177,69.4361128 Z" id="Lipstick" fill="url(#linearGradient-1)"></path>
                    <path d="M20.4408866,22.454084 C22.4274632,22.5662338 24.5649693,14.206393 24.2754483,9.20791527 C23.9859274,4.20943752 22.1000487,-0.433741071 20.1134722,-0.545890784 C18.1268956,-0.658040497 16.7702939,6.33880316 17.0598149,11.3372809 C17.3493359,16.3357587 18.4543101,22.3419343 20.4408866,22.454084 Z" id="Lipstick-Tip" fill="url(#linearGradient-2)" transform="translate(20.661415, 10.953989) rotate(43.000000) translate(-20.661415, -10.953989) "></path>
                    <g id="Lipstick-Shaft---Black">
                        <use fill="url(#linearGradient-3)" fill-rule="evenodd" xlink:href="#path-4"></use>
                        <use fill="black" fill-opacity="1" filter="url(#filter-5)" xlink:href="#path-4"></use>
                    </g>
                    <g id="Lipstick-Body---Red">
                        <use fill="url(#linearGradient-6)" fill-rule="evenodd" xlink:href="#path-7"></use>
                        <use fill="black" fill-opacity="1" filter="url(#filter-8)" xlink:href="#path-7"></use>
                    </g>
                </g>
            </g>
        </g>
    </g>
</svg>