<?xml version="1.0" encoding="UTF-8"?>
<svg width="466px" height="193px" viewBox="0 0 466 193" version="1.1" xmlns="http://www.w3.org/2000/svg" xmlns:xlink="http://www.w3.org/1999/xlink">
    <!-- Generator: Sketch 59.1 (86144) - https://sketch.com -->
    <title>Werk-Logo</title>
    <desc>Created with Sketch.</desc>
    <defs>
        <linearGradient x1="57.5295166%" y1="49.0760976%" x2="42.9725711%" y2="49.0837611%" id="linearGradient-1">
            <stop stop-color="#D82016" offset="0%"></stop>
            <stop stop-color="#E02614" offset="8.78378378%"></stop>
            <stop stop-color="#FE6C6F" offset="31.920397%"></stop>
            <stop stop-color="#E72812" offset="60.7685811%"></stop>
            <stop stop-color="#E23830" offset="74.3797508%"></stop>
            <stop stop-color="#B40712" offset="88.4792019%"></stop>
            <stop stop-color="#A82F27" offset="100%"></stop>
        </linearGradient>
        <linearGradient x1="50%" y1="0%" x2="50%" y2="100%" id="linearGradient-2">
            <stop stop-color="#BC0E14" offset="0.266575169%"></stop>
            <stop stop-color="#C11219" offset="99.3533573%"></stop>
        </linearGradient>
        <linearGradient x1="0%" y1="37.4719422%" x2="100%" y2="37.4719422%" id="linearGradient-3">
            <stop stop-color="#101010" offset="0%"></stop>
            <stop stop-color="#050505" offset="14.0189448%"></stop>
            <stop stop-color="#3C3D3F" offset="23.1399549%"></stop>
            <stop stop-color="#040404" offset="59.8566633%"></stop>
            <stop stop-color="#828388" offset="62.9602611%"></stop>
            <stop stop-color="#000000" offset="84.3820554%"></stop>
            <stop stop-color="#000000" offset="93.1168177%"></stop>
            <stop stop-color="#302E30" offset="100%"></stop>
        </linearGradient>
        <path d="M8.43622858,52.5263694 C13.3218917,52.0991915 17.9879865,51.8856026 22.4345132,51.8856026 C26.7344285,51.8856026 31.0343439,52.0853388 35.3342592,52.4848112 C37.9054164,52.7236742 39.8717426,54.8811441 39.8717426,57.4633727 L39.8717426,126.885603 L39.8717426,126.885603 L3.87174262,126.885603 L3.87174262,57.5073735 C3.87173523,54.9147426 5.85345137,52.7521945 8.43622858,52.5263694 Z" id="path-4"></path>
        <filter x="-12.5%" y="-6.0%" width="125.0%" height="112.0%" filterUnits="objectBoundingBox" id="filter-5">
            <feMorphology radius="1" operator="erode" in="SourceAlpha" result="shadowSpreadInner1"></feMorphology>
            <feGaussianBlur stdDeviation="2" in="shadowSpreadInner1" result="shadowBlurInner1"></feGaussianBlur>
            <feOffset dx="0" dy="4" in="shadowBlurInner1" result="shadowOffsetInner1"></feOffset>
            <feComposite in="shadowOffsetInner1" in2="SourceAlpha" operator="arithmetic" k2="-1" k3="1" result="shadowInnerInner1"></feComposite>
            <feColorMatrix values="0 0 0 0 0   0 0 0 0 0   0 0 0 0 0  0 0 0 0.5 0" type="matrix" in="shadowInnerInner1"></feColorMatrix>
        </filter>
        <linearGradient x1="0%" y1="41.1514732%" x2="100%" y2="41.1514732%" id="linearGradient-6">
            <stop stop-color="#202020" offset="0%"></stop>
            <stop stop-color="#202020" offset="8.90943382%"></stop>
            <stop stop-color="#2F2F2F" offset="13.4963233%"></stop>
            <stop stop-color="#202020" offset="20.1159384%"></stop>
            <stop stop-color="#38383A" offset="87.871985%"></stop>
            <stop stop-color="#171717" offset="100%"></stop>
        </linearGradient>
        <linearGradient x1="57.7037296%" y1="49.0760976%" x2="42.8099751%" y2="49.0837611%" id="linearGradient-7">
            <stop stop-color="#D82016" offset="0%"></stop>
            <stop stop-color="#E02614" offset="8.78378378%"></stop>
            <stop stop-color="#FE6C6F" offset="31.920397%"></stop>
            <stop stop-color="#E72812" offset="60.7685811%"></stop>
            <stop stop-color="#E23830" offset="74.3797508%"></stop>
            <stop stop-color="#B40712" offset="88.4792019%"></stop>
            <stop stop-color="#A82F27" offset="100%"></stop>
        </linearGradient>
        <linearGradient x1="57.7037296%" y1="100%" x2="42.7716536%" y2="3.08540963%" id="linearGradient-8">
            <stop stop-color="#FFFFFF" stop-opacity="0.265105988" offset="0%"></stop>
            <stop stop-color="#000000" stop-opacity="0" offset="100%"></stop>
        </linearGradient>
        <path d="M4.17863667,90.2366388 C9.70474856,89.9436148 15.3511074,89.7971027 21.1177131,89.7971027 C26.9436437,89.7971027 32.7695742,89.9466448 38.5955048,90.245729 C40.7221469,90.3548914 42.3904404,92.1110265 42.3904404,94.2404684 L42.3904404,191.797103 C42.3904404,194.558526 40.1518641,196.797103 37.3904404,196.797103 L5.39044039,196.797103 C2.62901664,196.797103 0.390440392,194.558526 0.390440392,191.797103 L0.390440392,94.231024 C0.39044373,92.1041933 2.05478971,90.3492566 4.17863667,90.2366388 Z" id="path-9"></path>
        <filter x="-13.1%" y="-5.1%" width="126.2%" height="110.3%" filterUnits="objectBoundingBox" id="filter-10">
            <feGaussianBlur stdDeviation="3.5" in="SourceAlpha" result="shadowBlurInner1"></feGaussianBlur>
            <feOffset dx="0" dy="4" in="shadowBlurInner1" result="shadowOffsetInner1"></feOffset>
            <feComposite in="shadowOffsetInner1" in2="SourceAlpha" operator="arithmetic" k2="-1" k3="1" result="shadowInnerInner1"></feComposite>
            <feColorMatrix values="0 0 0 0 0.461447011   0 0 0 0 0.461447011   0 0 0 0 0.461447011  0 0 0 0.5 0" type="matrix" in="shadowInnerInner1" result="shadowMatrixInner1"></feColorMatrix>
            <feGaussianBlur stdDeviation="2" in="SourceAlpha" result="shadowBlurInner2"></feGaussianBlur>
            <feOffset dx="0" dy="4" in="shadowBlurInner2" result="shadowOffsetInner2"></feOffset>
            <feComposite in="shadowOffsetInner2" in2="SourceAlpha" operator="arithmetic" k2="-1" k3="1" result="shadowInnerInner2"></feComposite>
            <feColorMatrix values="0 0 0 0 0   0 0 0 0 0   0 0 0 0 0  0 0 0 0.5 0" type="matrix" in="shadowInnerInner2" result="shadowMatrixInner2"></feColorMatrix>
            <feMerge>
                <feMergeNode in="shadowMatrixInner1"></feMergeNode>
                <feMergeNode in="shadowMatrixInner2"></feMergeNode>
            </feMerge>
        </filter>
    </defs>
    <g id="Werk-Logo" stroke="none" stroke-width="1" fill="none" fill-rule="evenodd">
        <path d="M85.0798722,102.548784 C96.9205132,66.902415 104.814155,49.0794976 108.761036,49.0794976 C109.225375,49.0794976 109.747748,49.1375527 110.328172,49.2536646 C112.185527,49.3697766 114.275021,48.6150602 116.596715,46.9894929 C119.614917,44.4350299 123.126427,42.4611563 127.13135,41.0678129 C131.136273,39.6744695 135.054073,39.1519735 138.884869,39.5003094 C147.823392,40.3130931 153.453416,45.0155566 155.775111,53.6078411 L155.775111,54.1303423 C155.194687,55.7559096 154.614272,57.091177 154.033849,58.1361846 L154.730353,58.1361846 C151.949157,61.5856772 149.274612,66.0215027 146.706644,71.4437844 L146.372296,72.1566328 C144.083768,77.0830971 142.26434,81.071138 140.913974,84.1208399 L140.277878,85.5674963 C138.884862,88.760575 136.911451,92.7954048 134.357588,97.6721069 C131.803724,102.548809 128.872629,108.528485 125.564214,115.611314 C122.2558,122.694143 118.802331,129.718811 115.203705,136.685528 C106.613436,153.405649 98.0813377,166.526103 89.6071534,176.047283 C85.312019,181.272321 79.5078702,183.826746 72.1945331,183.710634 C69.0602458,183.594522 66.0420885,182.78175 63.1399706,181.272295 C60.2378527,179.762839 57.9742347,177.440635 56.3490487,174.305613 L52.6923984,163.333088 C51.2993818,164.512071 49.7085627,165.98784 47.9198998,167.760433 L47.4686123,168.209765 C45.7770922,169.901682 44.0003083,171.636231 42.1382213,173.413448 L41.200069,174.305613 C36.0923415,179.182315 32.1455204,181.736739 29.3594872,181.968963 C26.573454,182.201187 24.1937531,182.230215 22.2203129,182.056047 C20.2468727,181.881879 18.3895451,181.446465 16.6482744,180.749794 C12.7013941,179.240338 10.1475686,176.337583 8.98672148,172.041441 C7.01328132,152.186297 8,126.816216 11.9468669,95.9304363 C12.9916294,88.3831593 13.9202932,80.9521058 14.7328862,73.6370528 C16.6660521,63.5139862 20.2700882,56.1765529 25.5450992,51.6245431 L25.8769632,51.3436693 C30.5203518,47.395863 35.0475878,46.2347608 39.458807,47.8603282 C41.4322472,48.5569999 42.9413258,49.718102 43.9860883,51.3436693 C45.0308507,52.9692367 45.3790996,54.9431103 45.0308455,57.2653493 L45.0709763,58.5722883 C45.2546261,65.0015254 45.1832075,69.848903 44.8567193,73.1145516 L44.7261241,74.8440373 C44.3740008,79.7044735 44.2398605,83.3874952 44.3236996,85.8931875 L44.3343407,86.177081 C44.4504254,88.9637679 44.4214046,91.2569445 44.2472776,93.0566798 C44.0731505,94.8564151 43.9570675,96.5400131 43.8990252,98.1075245 C43.8409828,99.6750359 43.8990243,100.952248 44.0731514,101.9392 C44.2472784,102.926151 44.6825896,103.129344 45.3790979,102.548784 L45.9076699,101.431788 C48.3490565,96.3166769 50.4364881,92.5670888 52.1700198,90.1829233 L53.5847977,88.2453114 C55.0213377,86.2859335 56.523167,84.2612538 58.0903107,82.1712387 C61.3406827,79.2684398 64.1847156,78.1653928 66.6224946,78.8620646 C67.7575452,79.0684858 68.9384406,79.4354518 70.1652089,79.9629716 L70.6273973,80.1683175 C72.0204139,80.8069332 73.8777415,81.3584567 76.1994358,81.8229046 C77.7085371,83.100136 78.6952424,84.4934586 79.1595813,86.002914 C79.5078354,86.3512498 79.8560843,86.6705529 80.2043385,86.9608328 C80.5525926,87.2511127 80.8137793,87.5994433 80.9879064,88.0058351 L81.0637482,88.1947099 C81.2414859,88.6609612 81.5064138,89.4978602 81.8585374,90.7054245 L82.9347334,94.3701875 C83.0105106,94.6266003 83.0870941,94.8854326 83.1644839,95.1466845 C83.535955,96.4006936 83.8702751,97.6175324 84.1674504,98.797224 L85.0798722,102.548784 L85.0798722,102.548784 Z M89.4330272,175.002281 L89.258901,175.524782 L89.2632004,175.649495 C89.2732323,175.759873 89.3008201,175.747329 89.3459641,175.611865 C89.4040065,175.437698 89.4330272,175.234505 89.4330272,175.002281 Z M195.475885,150.270558 C193.270275,151.315566 191.12274,152.128338 189.033215,152.708897 C186.94369,153.289457 184.505948,153.870008 181.719915,154.450568 L179.292089,154.943072 C173.225847,156.150728 168.753331,156.85739 165.87443,157.063074 C166.222684,158.224193 167.963929,159.617516 171.098216,161.243083 C173.187741,161.591419 175.48038,161.272116 177.976201,160.285164 C180.472023,159.298213 183.08389,158.369331 185.811881,157.498491 C188.539871,156.627652 191.20978,156.134183 193.821686,156.018071 C196.433592,155.901959 198.900355,156.888896 201.222049,158.978911 C202.150727,161.068927 202.905267,162.288084 203.48569,162.63642 C203.993561,162.941213 204.456987,163.112658 204.875978,163.150757 L205.052826,163.158921 C205.517165,163.158921 206.039538,163.333086 206.619962,163.681422 C207.200385,164.029758 208.041987,165.365025 209.144792,167.687264 C210.247597,170.009503 209.957389,172.215597 208.274161,174.305613 C206.590932,176.395628 204.008086,178.195336 200.525545,179.704791 C197.043003,181.214247 192.980099,182.433404 188.33671,183.3623 C183.693322,184.291195 179.050003,184.929801 174.406614,185.278137 C163.95899,186.090921 156.007306,185.278149 150.551324,182.839798 C142.657564,180.169223 137.549913,174.886209 135.228219,166.990596 C132.259495,156.711833 133.839296,144.748204 139.967669,131.09936 L140.277878,130.415514 C143.179996,123.913244 147.765274,116.946632 154.033849,109.515467 C159.48983,103.013197 165.584186,98.3107339 172.3171,95.4079351 C180.094776,92.0406885 188.220584,90.4732006 196.694768,90.7054245 C205.749376,90.9376484 212.017857,94.8853956 215.500398,102.548784 C217.241669,106.612703 217.589918,112.302103 216.545155,119.617156 L216.288282,120.898225 C214.464988,129.744796 212.112866,136.052174 209.231855,139.820535 C206.213652,143.652229 201.628375,147.135536 195.475885,150.270558 Z M185.376565,122.752163 C179.224075,121.474932 174.406632,124.958238 170.92409,133.202187 C169.879328,135.408314 169.066747,137.730518 168.486323,140.168869 C172.433204,140.633317 176.612191,138.427223 181.02341,133.550521 C182.648596,131.576618 183.867467,129.573717 184.68006,127.541757 C185.492653,125.509798 185.724819,123.913283 185.376565,122.752163 Z M236.743795,103.942121 C238.368981,99.7620907 240.66162,96.5980874 243.62178,94.4500163 C246.58194,92.3019452 249.425973,90.9666777 252.153964,90.4441739 C254.881955,89.9216701 257.145573,90.2409732 258.944886,91.4020928 C260.744199,92.5632123 261.353634,94.3629206 260.773211,96.8012716 C262.97882,94.5951445 266.171102,92.5632158 270.350152,90.7054245 L271.420588,90.2339533 C275.097987,88.6298991 278.049547,87.5098408 280.275346,86.8737492 C282.713125,86.1770775 284.802618,85.8287469 286.543889,85.8287469 C290.374685,86.0609708 291.477473,88.1509546 289.852287,92.098761 C291.825727,92.4470968 293.276764,93.7243092 294.205442,95.9304363 C295.13412,98.1365634 295.250203,100.574878 294.553694,103.245453 C293.857186,105.916028 292.290066,108.528507 289.852287,111.08297 C287.512019,113.535255 284.396165,115.238454 280.504637,116.192613 L280.014156,116.307982 C275.893149,117.236878 272.468701,119.355889 269.74071,122.66508 C267.01272,125.97427 264.603998,130.067155 262.514473,134.943857 C259.101582,143.022927 256.0232,154.391489 253.279238,169.049873 L253.111658,169.951436 C252.203618,175.287425 248.576555,179.790783 242.230363,183.461638 L241.793455,183.710634 C235.674132,187.224403 230.052693,188.303886 224.928978,186.949115 L224.554961,186.845641 C218.63464,185.220073 216.022773,180.86594 216.719282,173.783111 C216.944818,168.932949 218.375339,162.521483 221.010887,154.548531 L222.841563,149.103625 C224.576857,143.96818 226.011932,139.788197 227.14681,136.563615 L228.056834,133.992586 C229.369234,130.2629 230.291449,127.386952 230.823504,125.364669 L236.743795,103.942121 Z M322.065634,39.3261423 C324.619498,36.1911196 327.695697,34.4494664 331.294323,34.1011306 C334.892949,33.7527947 338.375438,34.3043182 341.741895,35.7557176 C345.108352,37.207117 347.981406,39.413211 350.361142,42.3740658 C352.740879,45.3349206 354.046812,48.6150341 354.278982,52.2145046 L352.711846,57.2653493 C353.988778,58.7748047 355.120587,59.9939619 356.107307,60.9228576 C357.094027,61.8517532 357.645421,63.3031308 357.761506,65.277034 C358.447771,66.8786959 355.640517,73.1582273 349.339659,84.115813 L347.253738,87.7359901 C345.734613,90.3664136 344.170709,93.0595394 342.562013,95.8153925 L340.610075,99.1525269 C337.649915,104.203397 335.241193,108.702667 333.383838,112.650474 C334.498251,112.371805 335.612651,112.130295 336.727059,111.925939 L337.562866,111.779639 C338.955883,111.547415 340.348879,111.257139 341.741895,110.908803 L343.422801,110.481899 C351.093669,108.556506 356.337526,107.566731 359.154516,107.512546 C362.172718,107.45449 364.668502,107.773793 366.641942,108.470464 C371.981839,110.56048 374.767831,113.811566 375,118.22382 C373.374814,122.055514 367.280458,127.396584 356.716749,134.247189 L355.766403,134.838585 C353.760981,136.093106 352.104346,137.173191 350.796458,138.078864 L335.647478,148.877222 C334.834885,150.154453 334.25447,151.373611 333.906216,152.53473 L333.906216,152.708897 C334.138386,153.289457 335.618443,154.102229 338.346434,155.147236 L340.757417,156.078877 C342.485283,156.752872 344.032318,157.371213 345.398546,157.933909 C350.041934,160.023924 354.16288,162.868624 357.761506,166.468095 C358.922353,167.745326 359.676892,169.632117 360.025147,172.128524 C360.373401,174.624931 359.996131,176.918108 358.893326,179.008123 C357.790521,181.098138 355.846132,182.607571 353.060098,183.536467 C350.274065,184.465362 346.385286,184.058976 341.393643,182.317297 C334.080306,179.066163 325.432124,171.809274 315.448839,160.546415 L313.165852,168.558095 C312.791804,169.874022 312.420979,171.180275 312.053378,172.476858 C310.950573,176.366609 309.760722,180.343384 308.48379,184.407302 C306.74252,188.355108 302.679616,190.212872 296.294956,189.980648 C293.741093,189.980648 291.448454,189.458152 289.416971,188.413144 C287.385489,187.368137 286.195638,185.974814 285.847384,184.233135 C284.918706,181.678672 284.454374,179.791881 284.454374,178.572705 C284.454374,177.35353 284.744582,175.93118 285.325006,174.305613 L285.829448,173.019199 C288.208035,166.883882 289.723093,161.942579 290.374665,158.19516 L290.576653,157.04304 C291.161718,153.735596 291.558723,151.768398 291.767675,151.141394 C288.618877,149.116692 286.722948,145.947868 286.079836,141.634834 L286.02151,141.213871 C285.325002,136.801617 286.369749,132.85387 289.155782,129.370511 L291.745916,128.390819 C294.140152,127.476442 295.946698,126.758008 297.165587,126.235504 C297.818564,122.099016 298.879635,117.656436 300.348831,112.907646 L301.259777,110.006859 C303.665569,102.293721 305.580942,95.4763795 307.005938,89.5546835 L307.35197,88.0929187 C308.856428,81.6278051 311.002757,74.3334791 313.791016,66.209738 L314.142892,65.1899505 C317.103052,56.655722 319.74394,48.0345388 322.065634,39.3261423 Z" id="Werk" fill="#FB0000" fill-rule="nonzero"></path>
        <g id="Lipstick-Symbol---All" transform="translate(416.500000, 100.500000) rotate(-163.000000) translate(-416.500000, -100.500000) translate(395.000000, 2.000000)">
            <g id="Lipstick---Red-Lipstick-Gradient">
                <g>
                    <path d="M9.26166177,69.4361128 L35.2616618,69.4361128 C35.2616618,52.9607264 35.2616618,41.8307817 35.2616618,36.0462786 C35.2616618,21.057297 33.3254916,4.84594331 28.8999596,2.6564461 C27.7935842,2.10907554 26.6871937,2.6564461 25.0276192,3.47750756 C22.1411082,4.90558626 20.7352058,6.69760233 18.6659171,8.40387628 C17.0063426,9.77231204 14.7738818,11.6137252 12.5808107,15.5197422 C9.81485326,20.446111 10.054418,30.2781694 9.81485326,36.0462786 C9.81485326,46.0814742 9.6304561,57.2114189 9.26166177,69.4361128 Z" id="Lipstick" fill="url(#linearGradient-1)"></path>
                    <path d="M20.4408866,22.454084 C22.4274632,22.5662338 24.5649693,14.206393 24.2754483,9.20791527 C23.9859274,4.20943752 22.1000487,-0.433741071 20.1134722,-0.545890784 C18.1268956,-0.658040497 16.7702939,6.33880316 17.0598149,11.3372809 C17.3493359,16.3357587 18.4543101,22.3419343 20.4408866,22.454084 Z" id="Lipstick-Tip" fill="url(#linearGradient-2)" transform="translate(20.661415, 10.953989) rotate(43.000000) translate(-20.661415, -10.953989) "></path>
                    <g id="Lipstick-Shaft---Black">
                        <use fill="url(#linearGradient-3)" fill-rule="evenodd" xlink:href="#path-4"></use>
                        <use fill="black" fill-opacity="1" filter="url(#filter-5)" xlink:href="#path-4"></use>
                    </g>
                    <g id="Lipstick-Body---Black">
                        <use fill="url(#linearGradient-6)" fill-rule="evenodd" xlink:href="#path-9"></use>
                        <use fill="url(#linearGradient-7)" fill-rule="evenodd" xlink:href="#path-9"></use>
                        <use fill="url(#linearGradient-8)" fill-rule="evenodd" xlink:href="#path-9"></use>
                        <use fill="black" fill-opacity="1" filter="url(#filter-10)" xlink:href="#path-9"></use>
                    </g>
                    <path d="M5.72237154,132.470005 L6.57735201,132.071567 L6.49987804,132.798347 L6.49987804,132.798347 L6.34493014,133.831333 L6.34493014,133.831333 C6.80424233,133.372021 7.26216418,132.965286 7.71870943,132.611118 C8.17525469,132.256949 8.58890615,131.994094 8.95967623,131.822544 C9.33044631,131.650993 9.67077494,131.565219 9.98067232,131.565219 C10.3071714,131.565219 10.5658764,131.675895 10.7567954,131.897251 C10.9477143,132.118606 11.0431723,132.422965 11.0431723,132.810337 C11.0431723,133.247513 10.8951432,133.738638 10.5990805,134.283725 C10.3030178,134.828813 9.88106569,135.38911 9.33321139,135.964634 C8.74108603,136.589962 8.20154064,137.065869 7.71455904,137.392368 L8.01338717,137.375766 L8.01338717,137.375766 C8.61104641,137.375766 9.1007876,137.552848 9.48262545,137.907016 C9.8644633,138.261185 10.0553794,138.72049 10.0553794,139.284946 C10.0553794,139.849402 9.89213229,140.405549 9.56563326,140.953403 C9.23913423,141.501257 8.78812963,141.97163 8.21260592,142.364536 C7.57620951,142.801713 6.83468046,143.020298 5.98799654,143.020298 C5.27965967,143.020298 4.77885087,142.881953 4.48555514,142.605259 L4.89229342,142.074009 C5.06937764,142.262161 5.29072959,142.415723 5.55635592,142.534702 C5.82198225,142.65368 6.09590529,142.713169 6.37813326,142.713169 C6.87618263,142.713169 7.33963828,142.562373 7.76851412,142.260776 C8.19738996,141.95918 8.54048549,141.557979 8.797811,141.057163 C9.0551365,140.556347 9.18379732,140.020951 9.18379732,139.450962 C9.18379732,139.091259 9.11877519,138.78275 8.98872897,138.525425 C8.85868274,138.268099 8.67468393,138.068882 8.43672701,137.927768 C8.19877009,137.786654 7.91931325,137.716098 7.59834811,137.716098 C7.44339941,137.716098 7.25801715,137.743767 7.04219576,137.799106 L7.12520357,137.392368 C7.61771906,137.11014 8.09915956,136.746293 8.56953951,136.300815 C9.03991947,135.855338 9.43558608,135.389115 9.75655123,134.902134 C10.1826601,134.260203 10.3957114,133.673621 10.3957114,133.142368 C10.3957114,132.821403 10.311321,132.564081 10.1425376,132.370395 C9.97375416,132.176709 9.75101876,132.079868 9.47432467,132.079868 C8.9762753,132.079868 8.33435464,132.403595 7.54854342,133.051059 C7.01175688,133.499304 6.58565437,133.922639 6.27022311,134.321079 L6.24532076,134.470493 C6.15677865,135.073686 6.03088473,135.728058 5.86763522,136.433628 C5.7043857,137.139198 5.50793584,137.880727 5.27827975,138.658237 C5.04862365,139.435747 4.82035445,140.14269 4.59346529,140.779087 C4.32783897,141.520627 4.07051732,142.069856 3.82149264,142.426792 C3.57246795,142.783727 3.32621391,142.962192 3.08272311,142.962192 C2.70641914,142.962192 2.51826998,142.646766 2.51826998,142.015903 C2.51826998,141.595328 2.59712661,141.054399 2.75484225,140.3931 C2.91255788,139.731801 3.11039119,139.099565 3.34834811,138.496372 C3.91833793,137.040961 4.62113039,135.831826 5.45674654,134.86893 L5.5165122,134.447915 C5.54639495,134.222798 5.57627764,133.975768 5.60616061,133.706821 L5.69933264,132.743761 C5.70836748,132.641893 5.71604711,132.550641 5.72237154,132.470005 Z M5.37373873,135.375278 C4.95316371,135.889929 4.55057985,136.518015 4.16597506,137.259555 C3.78137027,138.001096 3.47009409,138.756459 3.23213717,139.525669 C3.08825624,139.990515 2.97066302,140.44982 2.87935397,140.903598 C2.78804491,141.357377 2.74239107,141.706006 2.74239107,141.949497 C2.74239107,142.298131 2.82816496,142.472446 2.99971529,142.472446 C3.12146069,142.466912 3.23767047,142.379755 3.34834811,142.210971 C3.44321465,142.0663 3.55840822,141.83117 3.69393142,141.505575 L3.76338717,141.335239 C3.85192928,141.113884 3.95430456,140.834427 4.07051607,140.49686 C4.14799042,140.271816 4.22115993,140.052307 4.29002554,139.838332 L4.39009615,139.521518 C4.44820191,139.33392 4.5092954,139.126899 4.5733773,138.900454 L4.8092858,138.03245 C4.87200275,137.793879 4.92180712,137.597121 4.95869967,137.442173 C5.15791941,136.617624 5.29626439,135.928666 5.37373873,135.375278 Z M10.7775473,141.210727 C10.7775473,140.712678 10.9117419,140.216019 11.1801352,139.720737 C11.4485285,139.225455 11.7957744,138.822871 12.2218833,138.512973 C12.6479922,138.203076 13.0823954,138.04813 13.5251059,138.04813 C13.989952,138.04813 14.3648669,138.201693 14.6498618,138.508823 C14.9348567,138.815953 15.077352,139.213003 15.077352,139.699985 C15.077352,140.231238 14.9459243,140.745881 14.6830649,141.24393 C14.4202055,141.74198 14.0743431,142.150097 13.6454672,142.468296 C13.2165914,142.786494 12.7835716,142.945591 12.346395,142.945591 C11.876015,142.945591 11.4969498,142.786494 11.2091879,142.468296 C10.9214261,142.150097 10.7775473,141.730912 10.7775473,141.210727 Z M14.3302817,139.384555 C14.3302817,139.052522 14.2486582,138.778599 14.0854087,138.562778 C13.9221591,138.346957 13.7132582,138.239048 13.4586997,138.239048 C13.2262766,138.239048 13.0035412,138.313754 12.7904868,138.463169 C12.5774323,138.612583 12.3823659,138.831169 12.2052817,139.11893 C12.006062,139.450963 11.8414314,139.838329 11.7113852,140.28104 C11.581339,140.72375 11.5163169,141.11665 11.5163169,141.459751 C11.5163169,141.869258 11.5965569,142.184684 11.7570395,142.40604 C11.9175221,142.627395 12.1471747,142.738071 12.4460044,142.738071 C12.9274521,142.738071 13.3507877,142.403276 13.7160239,141.733676 C13.9041759,141.390576 14.0535884,141.005977 14.1642661,140.579868 C14.2749437,140.153759 14.3302817,139.755325 14.3302817,139.384555 Z M15.7580161,141.210727 C15.7580161,140.712678 15.8922107,140.216019 16.160604,139.720737 C16.4289972,139.225455 16.7762431,138.822871 17.202352,138.512973 C17.6284609,138.203076 18.0628641,138.04813 18.5055747,138.04813 C18.9704207,138.04813 19.3453356,138.201693 19.6303305,138.508823 C19.9153254,138.815953 20.0578208,139.213003 20.0578208,139.699985 C20.0578208,140.231238 19.926393,140.745881 19.6635337,141.24393 C19.4006743,141.74198 19.0548118,142.150097 18.625936,142.468296 C18.1970602,142.786494 17.7640404,142.945591 17.3268637,142.945591 C16.8564838,142.945591 16.4774186,142.786494 16.1896567,142.468296 C15.9018948,142.150097 15.7580161,141.730912 15.7580161,141.210727 Z M19.3107504,139.384555 C19.3107504,139.052522 19.2291269,138.778599 19.0658774,138.562778 C18.9026279,138.346957 18.693727,138.239048 18.4391684,138.239048 C18.2067454,138.239048 17.98401,138.313754 17.7709555,138.463169 C17.5579011,138.612583 17.3628347,138.831169 17.1857504,139.11893 C16.9865307,139.450963 16.8219002,139.838329 16.691854,140.28104 C16.5618077,140.72375 16.4967856,141.11665 16.4967856,141.459751 C16.4967856,141.869258 16.5770257,142.184684 16.7375083,142.40604 C16.8979908,142.627395 17.1276435,142.738071 17.4264731,142.738071 C17.9079208,142.738071 18.3312564,142.403276 18.6964926,141.733676 C18.8846446,141.390576 19.0340572,141.005977 19.1447348,140.579868 C19.2554125,140.153759 19.3107504,139.755325 19.3107504,139.384555 Z M23.8263754,131.108676 L21.5685629,140.928501 C21.6958422,140.629671 21.8480217,140.341914 22.0251059,140.065219 C22.2021901,139.788525 22.4041738,139.518753 22.6310629,139.255893 C22.8579521,138.993034 23.0765372,138.778599 23.2868247,138.612583 C23.5579849,138.396761 23.8305245,138.236281 24.1044516,138.131137 C24.3783788,138.025994 24.6868881,137.965122 25.0299887,137.94852 L24.8805747,138.612583 C24.7145582,138.579379 24.5900477,138.562778 24.5070395,138.562778 C23.8540415,138.562778 23.2453236,138.892039 22.6808676,139.550571 C22.862379,140.037553 23.0527422,140.48557 23.251961,140.894633 L23.4030356,141.194126 C23.5469165,141.476354 23.6728105,141.701856 23.7807212,141.870639 C23.8886318,142.039423 23.9882402,142.16255 24.0795493,142.240024 C24.1708583,142.317498 24.2607826,142.356235 24.3493247,142.356235 C24.5596122,142.356235 24.8252345,142.187454 25.1461997,141.849887 L25.2126059,141.77518 L25.3205161,141.899692 C24.761594,142.574826 24.3548598,142.912387 24.1003012,142.912387 C23.9287509,142.912387 23.7682707,142.837681 23.6188559,142.688266 C23.4694411,142.538852 23.2951264,142.28153 23.0959067,141.916294 C22.7472721,141.279897 22.4622815,140.676713 22.2409262,140.106723 C21.7207413,140.964475 21.3887134,141.830515 21.2448325,142.704868 L20.7052817,142.879184 L22.9298911,131.532016 L23.8263754,131.108676 Z M29.0558676,141.517856 L29.2052817,141.642368 C28.862181,142.096146 28.5273862,142.424024 28.2008872,142.62601 C27.8743881,142.827997 27.5229919,142.928989 27.1466879,142.928989 C26.6984435,142.928989 26.3387466,142.779576 26.0675864,142.480747 C25.7964262,142.181917 25.6608481,141.786251 25.6608481,141.293735 C25.6608481,140.795686 25.7922758,140.290727 26.0551352,139.778843 C26.3179946,139.266958 26.6472556,138.843623 27.0429282,138.508823 C27.4386007,138.174023 27.830117,138.006626 28.2174887,138.006626 C28.4443779,138.006626 28.6311436,138.073031 28.7777915,138.205844 C28.9244393,138.338658 28.9977622,138.510205 28.9977622,138.720493 C28.9977622,139.146602 28.7653426,139.572704 28.3004965,139.998813 C27.8356505,140.424922 27.2020305,140.787386 26.3996176,141.086216 C26.3940838,141.130487 26.3913169,141.180291 26.3913169,141.23563 C26.3913169,141.617467 26.496459,141.928744 26.7067465,142.169468 C26.9170341,142.410191 27.1881902,142.530551 27.5202231,142.530551 C27.7803156,142.530551 28.0321034,142.448928 28.2755942,142.285678 C28.519085,142.122429 28.7791735,141.866491 29.0558676,141.517856 Z M26.3996176,140.886997 C26.9972769,140.62137 27.4565822,140.325312 27.7775473,139.998813 C27.9933687,139.777458 28.1676834,139.539505 28.3004965,139.284946 C28.4333097,139.030387 28.4997153,138.800735 28.4997153,138.595981 C28.4997153,138.335889 28.3807386,138.205844 28.1427817,138.205844 C27.7830794,138.205844 27.4192321,138.489452 27.051229,139.056675 C26.6832258,139.623897 26.4660242,140.233999 26.3996176,140.886997 Z M34.9079184,131.532016 L35.8044028,131.108676 L33.6046958,140.679477 C33.4884842,141.188594 33.4303794,141.542758 33.4303794,141.741977 C33.4303794,141.919061 33.4621987,142.06294 33.5258383,142.173618 C33.589478,142.284296 33.6766353,142.339634 33.7873129,142.339634 C33.9072137,142.339634 34.048249,142.264697 34.2104219,142.114821 L34.5675864,141.758579 C34.5731203,141.753045 34.581421,141.747511 34.5924887,141.741977 L34.7170004,141.858188 L34.3268637,142.289829 L34.3268637,142.289829 L34.0529379,142.563755 C33.9145909,142.702102 33.8135991,142.789259 33.7499594,142.825229 C33.6863198,142.861199 33.6157639,142.879184 33.5382895,142.879184 C33.3556714,142.879184 33.2034919,142.78511 33.0817465,142.596958 C32.9600011,142.408806 32.8991294,142.192988 32.8991294,141.949497 C32.8991294,141.846725 32.9188929,141.683251 32.9584205,141.459074 L33.1066489,140.687778 C32.962768,141.036413 32.7358822,141.415478 32.4259848,141.824985 C31.8670628,142.54439 31.3247505,142.904087 30.7990317,142.904087 C30.4836004,142.904087 30.2345795,142.78926 30.0519614,142.559604 C29.8693433,142.329948 29.7780356,142.018672 29.7780356,141.625766 C29.7780356,141.077912 29.9219144,140.523149 30.2096762,139.96146 C30.4974381,139.399771 30.8640523,138.936315 31.3095297,138.571079 C31.7550072,138.205843 32.1990946,138.023227 32.6418051,138.023227 C32.9683042,138.023227 33.2726631,138.120069 33.5548911,138.313755 L34.9079184,131.532016 Z M33.480184,138.728794 C33.4303791,138.579379 33.3280038,138.459019 33.1730551,138.36771 C33.0181064,138.276401 32.8520925,138.230747 32.6750083,138.230747 C32.4149158,138.230747 32.14791,138.346957 31.8739829,138.57938 C31.6000557,138.811803 31.3413506,139.141064 31.0978598,139.567173 C30.9207756,139.882604 30.7755134,140.227083 30.6620688,140.60062 C30.5486242,140.974157 30.4919028,141.313102 30.4919028,141.617466 C30.4919028,141.883092 30.5486242,142.096143 30.6620688,142.256626 C30.7755134,142.417108 30.9318432,142.497348 31.1310629,142.497348 C31.363486,142.497348 31.6138904,142.378372 31.8822837,142.140415 C32.1506769,141.902458 32.4204496,141.559362 32.6916098,141.111118 C32.8742279,140.806754 33.0181067,140.491328 33.1232504,140.164829 L33.2385393,139.771925 C33.307405,139.528435 33.3602837,139.321839 33.3971762,139.152134 L33.480184,138.728794 Z M3.54341647,156.372837 C3.52681482,156.378371 3.51851412,156.383904 3.51851412,156.389438 L3.45210787,156.422641 C2.6828983,156.821081 1.86666297,157.020298 1.0033774,157.020298 C0.322709937,157.020298 -0.281857585,156.898554 -0.8103433,156.655063 C-1.33882902,156.411572 -1.74556323,156.06571 -2.03055814,155.617466 C-2.31555306,155.169221 -2.45804838,154.649044 -2.45804838,154.056919 C-2.45804838,152.77622 -1.64993807,151.64612 -0.0336943742,150.666587 L0.272908653,150.487583 L0.272908653,150.437778 C0.272908653,149.840119 0.364216333,149.25492 0.546834434,148.682163 C0.729452535,148.109406 0.970172784,147.640417 1.2690024,147.27518 C1.81132282,146.616648 2.4062062,146.287387 3.05367037,146.287387 C3.40230493,146.287387 3.68591212,146.388379 3.90450045,146.590366 C4.12308878,146.792353 4.23238131,147.042757 4.23238131,147.341587 C4.23238131,147.966546 3.7961212,148.579446 2.92358878,149.180301 L2.57845061,149.405368 C2.39998423,149.515354 2.14058614,149.665804 1.8002524,149.856723 L0.895078269,150.34608 C0.870435334,150.358791 0.848429583,150.369988 0.829060996,150.379673 C0.851196524,150.877722 0.979857347,151.447703 1.21504732,152.089634 C1.4502373,152.731564 1.73661139,153.298778 2.07417818,153.791294 C2.58882919,154.543902 3.23628366,155.205191 4.016561,155.77518 C4.40393273,155.498486 4.74979515,155.176143 5.05415865,154.808139 C5.35852215,154.440136 5.59785895,154.061071 5.77217623,153.670932 C5.94649351,153.280794 6.03365084,152.91418 6.03365084,152.571079 C6.03365084,152.21691 5.94095971,151.930536 5.75557467,151.711948 C5.57018963,151.49336 5.33085283,151.384067 5.03755709,151.384067 C4.26281363,151.384067 3.68729856,152.061957 3.31099459,153.417759 L2.87935397,152.778598 C2.98449772,152.418896 3.14082754,152.097936 3.34834811,151.815708 C3.55586867,151.53348 3.79658892,151.314895 4.07051607,151.159946 C4.34444323,151.004997 4.62805042,150.927524 4.92134615,150.927524 C5.18697248,150.927524 5.42769273,150.99393 5.64351412,151.126743 C5.85933551,151.259556 6.02949983,151.444938 6.15401217,151.682895 C6.27852451,151.920852 6.34077975,152.183708 6.34077975,152.471469 C6.34077975,152.753697 6.28820866,153.048372 6.1830649,153.355503 C6.07792115,153.662633 5.93404238,153.965609 5.75142428,154.264438 C5.56880618,154.563268 5.34053698,154.862093 5.06660982,155.160923 C4.79268267,155.459752 4.51460928,155.71154 4.23238131,155.916294 L4.27388522,155.941196 C4.83834116,156.295364 5.40832244,156.472446 5.98384615,156.472446 C6.4265567,156.472446 6.80423847,156.386672 7.11690279,156.215122 C7.42956712,156.043571 7.7463771,155.753047 8.06734225,155.34354 L8.18355318,155.476352 C7.52502125,156.477985 6.66728243,156.978794 5.610311,156.978794 C4.90197412,156.978794 4.21301617,156.77681 3.54341647,156.372837 Z M3.28609225,156.215122 C2.43940833,155.661734 1.74768347,154.90222 1.21089693,153.936557 C0.674110396,152.970895 0.364217662,151.920857 0.281209434,150.786411 L0.272908653,150.744907 C-0.966680879,151.536252 -1.58646635,152.499133 -1.58646635,153.633579 C-1.58646635,154.480263 -1.29040811,155.184439 -0.698282754,155.746128 C-0.106157397,156.307817 0.635371646,156.588657 1.52632662,156.588657 C2.14058751,156.588657 2.72717018,156.464146 3.28609225,156.215122 Z M0.829060996,150.147251 C1.6204061,149.726676 2.21805637,149.358678 2.62202975,149.043247 C2.92639325,148.816358 3.1698804,148.549352 3.3524985,148.242221 C3.5351166,147.935091 3.62642428,147.643183 3.62642428,147.366489 C3.62642428,147.128532 3.55310144,146.94315 3.40645357,146.810337 C3.25980571,146.677523 3.0647393,146.611118 2.8212485,146.611118 C2.46708006,146.611118 2.13643558,146.75638 1.82930514,147.046909 C1.5221747,147.337438 1.2773041,147.727571 1.094686,148.217319 C0.912067896,148.707068 0.820760215,149.231395 0.820760215,149.790317 L0.820760215,150.006137 L0.829060996,150.147251 Z M12.6327719,146.470005 L13.4877524,146.071567 L13.4628501,146.287387 L13.4102784,146.798347 L13.4102784,146.798347 L13.2553305,147.831333 L13.2553305,147.831333 C13.7146427,147.372021 14.1725646,146.965286 14.6291098,146.611118 C15.0856551,146.256949 15.4993065,145.994094 15.8700766,145.822544 C16.2408467,145.650993 16.5811753,145.565219 16.8910727,145.565219 C17.2175717,145.565219 17.4762768,145.675895 17.6671958,145.897251 C17.8581147,146.118606 17.9535727,146.422965 17.9535727,146.810337 C17.9535727,147.247513 17.8055436,147.738638 17.5094809,148.283725 C17.2134182,148.828813 16.7914661,149.38911 16.2436118,149.964634 C15.6514864,150.589962 15.111941,151.065869 14.6249594,151.392368 L14.9237876,151.375766 L14.9237876,151.375766 C15.5214468,151.375766 16.011188,151.552848 16.3930258,151.907016 C16.7748637,152.261185 16.9657797,152.72049 16.9657797,153.284946 C16.9657797,153.849402 16.8025327,154.405549 16.4760337,154.953403 C16.1495346,155.501257 15.69853,155.97163 15.1230063,156.364536 C14.4866099,156.801713 13.7450809,157.020298 12.8983969,157.020298 C12.1900601,157.020298 11.6892513,156.881953 11.3959555,156.605259 L11.8026938,156.074009 C11.979778,156.262161 12.20113,156.415723 12.4667563,156.534702 C12.7323826,156.65368 13.0063057,156.713169 13.2885337,156.713169 C13.786583,156.713169 14.2500387,156.562373 14.6789145,156.260776 C15.1077904,155.95918 15.4508859,155.557979 15.7082114,155.057163 C15.9655369,154.556347 16.0941977,154.020951 16.0941977,153.450962 C16.0941977,153.091259 16.0291756,152.78275 15.8991294,152.525425 C15.7690831,152.268099 15.5850843,152.068882 15.3471274,151.927768 C15.1091705,151.786654 14.8297136,151.716098 14.5087485,151.716098 C14.3537998,151.716098 14.1684175,151.743767 13.9525962,151.799106 L14.035604,151.392368 C14.5281194,151.11014 15.0095599,150.746293 15.4799399,150.300815 C15.9503199,149.855338 16.3459865,149.389115 16.6669516,148.902134 C17.0930605,148.260203 17.3061118,147.673621 17.3061118,147.142368 C17.3061118,146.821403 17.2217213,146.564081 17.0529379,146.370395 C16.8841546,146.176709 16.6614192,146.079868 16.3847251,146.079868 C15.8866757,146.079868 15.244755,146.403595 14.4589438,147.051059 C13.9221573,147.499304 13.4960548,147.922639 13.1806235,148.321079 L13.1557212,148.470493 C13.067179,149.073686 12.9412851,149.728058 12.7780356,150.433628 C12.6147861,151.139198 12.4183362,151.880727 12.1886801,152.658237 C11.959024,153.435747 11.7307548,154.14269 11.5038657,154.779087 C11.2382394,155.520627 10.9809177,156.069856 10.731893,156.426792 C10.4828683,156.783727 10.2366143,156.962192 9.9931235,156.962192 C9.61681953,156.962192 9.42867037,156.646766 9.42867037,156.015903 C9.42867037,155.595328 9.507527,155.054399 9.66524264,154.3931 C9.82295827,153.731801 10.0207916,153.099565 10.2587485,152.496372 C10.8287383,151.040961 11.5315308,149.831826 12.3671469,148.86893 C12.4169519,148.542431 12.4667561,148.155065 12.516561,147.706821 L12.5951644,146.904525 C12.6107494,146.735799 12.6232853,146.590959 12.6327719,146.470005 Z M12.2841391,149.375278 C11.8635641,149.889929 11.4609802,150.518015 11.0763754,151.259555 C10.6917707,152.001096 10.3804945,152.756459 10.1425376,153.525669 C9.99865663,153.990515 9.88106341,154.44982 9.78975436,154.903598 C9.69844531,155.357377 9.65279147,155.706006 9.65279147,155.949497 C9.65279147,156.298131 9.73856535,156.472446 9.91011568,156.472446 C10.0318611,156.466912 10.1480709,156.379755 10.2587485,156.210971 C10.353615,156.0663 10.4688086,155.83117 10.6043318,155.505575 L10.6737876,155.335239 C10.7623297,155.113884 10.8647049,154.834427 10.9809165,154.49686 C11.0583908,154.271816 11.1315603,154.052307 11.2004259,153.838332 L11.3004965,153.521518 C11.3586023,153.33392 11.4196958,153.126899 11.4837777,152.900454 L11.6159262,152.421665 C11.7104634,152.071186 11.784824,151.78604 11.8390097,151.566223 L11.8691001,151.442173 C12.0683198,150.617624 12.2066648,149.928666 12.2841391,149.375278 Z M19.9291587,145.532016 L20.8007407,145.108676 L18.5429282,155.003208 C18.4709877,155.307571 18.435018,155.564893 18.435018,155.77518 C18.435018,155.946731 18.4668374,156.086459 18.530477,156.19437 C18.5941167,156.302281 18.6729733,156.356235 18.7670493,156.356235 C18.9385996,156.356235 19.2125227,156.151485 19.5888266,155.741977 L19.7216391,155.858188 L19.6386313,155.949497 C19.3232,156.320267 19.0907805,156.570671 18.9413657,156.700718 C18.7919509,156.830764 18.6536059,156.895786 18.5263266,156.895786 C18.3603102,156.895786 18.2150479,156.803095 18.0905356,156.61771 C17.9660233,156.432325 17.903768,156.220657 17.903768,155.9827 C17.903768,155.844353 17.928747,155.638757 17.9787055,155.365906 L19.9291587,145.532016 Z M23.5316977,155.517856 L23.6811118,155.642368 C23.3380111,156.096146 23.0032163,156.424024 22.6767172,156.62601 C22.3502182,156.827997 21.998822,156.928989 21.622518,156.928989 C21.1742736,156.928989 20.8145767,156.779576 20.5434165,156.480747 C20.2722563,156.181917 20.1366782,155.786251 20.1366782,155.293735 C20.1366782,154.795686 20.2681059,154.290727 20.5309653,153.778843 C20.7938247,153.266958 21.1230857,152.843623 21.5187583,152.508823 C21.9144308,152.174023 22.3059471,152.006626 22.6933188,152.006626 C22.920208,152.006626 23.1069737,152.073031 23.2536215,152.205844 C23.4002694,152.338658 23.4735922,152.510205 23.4735922,152.720493 C23.4735922,153.146602 23.2411727,153.572704 22.7763266,153.998813 C22.3114805,154.424922 21.6778606,154.787386 20.8754477,155.086216 C20.8699138,155.130487 20.8671469,155.180291 20.8671469,155.23563 C20.8671469,155.617467 20.9722891,155.928744 21.1825766,156.169468 C21.3928641,156.410191 21.6640203,156.530551 21.9960532,156.530551 C22.2561456,156.530551 22.5079335,156.448928 22.7514243,156.285678 C22.9949151,156.122429 23.2550036,155.866491 23.5316977,155.517856 Z M20.8754477,154.886997 C21.473107,154.62137 21.9324123,154.325312 22.2533774,153.998813 C22.4691988,153.777458 22.6435135,153.539505 22.7763266,153.284946 C22.9091398,153.030387 22.9755454,152.800735 22.9755454,152.595981 C22.9755454,152.335889 22.8565687,152.205844 22.6186118,152.205844 C22.2589095,152.205844 21.8950622,152.489452 21.527059,153.056675 C21.1590559,153.623897 20.9418543,154.233999 20.8754477,154.886997 Z M23.7973227,156.273227 L24.2621665,155.725376 C24.5056573,156.300899 24.8930232,156.588657 25.4242758,156.588657 C25.7009699,156.588657 25.9375398,156.498733 26.1339926,156.318882 C26.3304454,156.13903 26.4286704,155.930129 26.4286704,155.692173 C26.4286704,155.520622 26.3816331,155.373977 26.2875571,155.252231 C26.2170001,155.160922 26.073294,155.022923 25.8564359,154.83823 L25.6151938,154.637973 C25.2886948,154.372347 25.0687263,154.163446 24.9552817,154.011264 C24.8418371,153.859083 24.7851157,153.683385 24.7851157,153.484165 C24.7851157,153.224072 24.8612054,152.983352 25.0133872,152.761997 C25.1655689,152.540642 25.368936,152.362177 25.6234946,152.226596 C25.8780532,152.091016 26.1464424,152.023227 26.4286704,152.023227 C26.6776951,152.023227 26.886596,152.085483 27.0553794,152.209995 C27.2241628,152.334507 27.3085532,152.493604 27.3085532,152.68729 C27.3085532,152.941848 27.2006441,153.116163 26.9848227,153.210239 C26.9516194,152.950147 26.8533945,152.746779 26.690145,152.600132 C26.5268955,152.453484 26.3179946,152.380161 26.063436,152.380161 C25.8365468,152.380161 25.6387135,152.453484 25.4699301,152.600132 C25.3011467,152.746779 25.2167563,152.914177 25.2167563,153.102329 C25.2167563,153.334752 25.3606351,153.564405 25.6483969,153.791294 L26.1298422,154.18143 C26.6002222,154.5522 26.8354087,154.931266 26.8354087,155.318637 C26.8354087,155.606399 26.7537851,155.876172 26.5905356,156.127964 C26.4272861,156.379755 26.2059341,156.580355 25.9264731,156.72977 C25.6470121,156.879185 25.3523373,156.953891 25.0424399,156.953891 C24.5499244,156.953891 24.1348895,156.727006 23.7973227,156.273227 Z M27.4164633,156.273227 L27.8813071,155.725376 C28.1247979,156.300899 28.5121638,156.588657 29.0434165,156.588657 C29.3201106,156.588657 29.5566805,156.498733 29.7531333,156.318882 C29.9495861,156.13903 30.047811,155.930129 30.047811,155.692173 C30.047811,155.520622 30.0007737,155.373977 29.9066977,155.252231 C29.8243812,155.145704 29.6425007,154.975626 29.3610515,154.741993 L29.2343344,154.637973 C28.9078354,154.372347 28.6878669,154.163446 28.5744223,154.011264 C28.4609777,153.859083 28.4042563,153.683385 28.4042563,153.484165 C28.4042563,153.224072 28.480346,152.983352 28.6325278,152.761997 C28.7847095,152.540642 28.9880767,152.362177 29.2426352,152.226596 C29.4971938,152.091016 29.765583,152.023227 30.047811,152.023227 C30.2968357,152.023227 30.5057366,152.085483 30.67452,152.209995 C30.8433034,152.334507 30.9276938,152.493604 30.9276938,152.68729 C30.9276938,152.941848 30.8197847,153.116163 30.6039633,153.210239 C30.57076,152.950147 30.4725351,152.746779 30.3092856,152.600132 C30.1460361,152.453484 29.9371352,152.380161 29.6825766,152.380161 C29.4556875,152.380161 29.2578542,152.453484 29.0890708,152.600132 C28.9202874,152.746779 28.8358969,152.914177 28.8358969,153.102329 C28.8358969,153.334752 28.9797757,153.564405 29.2675376,153.791294 L29.7489829,154.18143 C30.2193628,154.5522 30.4545493,154.931266 30.4545493,155.318637 C30.4545493,155.606399 30.3729257,155.876172 30.2096762,156.127964 C30.0464267,156.379755 29.8250748,156.580355 29.5456137,156.72977 C29.2661527,156.879185 28.9714779,156.953891 28.6615805,156.953891 C28.169065,156.953891 27.7540301,156.727006 27.4164633,156.273227 Z M34.8871665,155.517856 L35.0365805,155.642368 C34.6934799,156.096146 34.358685,156.424024 34.032186,156.62601 C33.705687,156.827997 33.3542907,156.928989 32.9779868,156.928989 C32.5297423,156.928989 32.1700454,156.779576 31.8988852,156.480747 C31.627725,156.181917 31.4921469,155.786251 31.4921469,155.293735 C31.4921469,154.795686 31.6235747,154.290727 31.886434,153.778843 C32.1492934,153.266958 32.4785545,152.843623 32.874227,152.508823 C33.2698996,152.174023 33.6614158,152.006626 34.0487876,152.006626 C34.2756767,152.006626 34.4624424,152.073031 34.6090903,152.205844 C34.7557382,152.338658 34.829061,152.510205 34.829061,152.720493 C34.829061,153.146602 34.5966414,153.572704 34.1317954,153.998813 C33.6669493,154.424922 33.0333293,154.787386 32.2309165,155.086216 C32.2253826,155.130487 32.2226157,155.180291 32.2226157,155.23563 C32.2226157,155.617467 32.3277579,155.928744 32.5380454,156.169468 C32.7483329,156.410191 33.019489,156.530551 33.3515219,156.530551 C33.6116144,156.530551 33.8634022,156.448928 34.106893,156.285678 C34.3503838,156.122429 34.6104724,155.866491 34.8871665,155.517856 Z M32.2309165,154.886997 C32.8285757,154.62137 33.287881,154.325312 33.6088462,153.998813 C33.8246675,153.777458 33.9989822,153.539505 34.1317954,153.284946 C34.2646085,153.030387 34.3310141,152.800735 34.3310141,152.595981 C34.3310141,152.335889 34.2120374,152.205844 33.9740805,152.205844 C33.6143782,152.205844 33.2505309,152.489452 32.8825278,153.056675 C32.5145247,153.623897 32.297323,154.233999 32.2309165,154.886997 Z M41.6357016,145.108676 L39.4359946,154.679477 L39.3597309,155.032261 C39.2943622,155.355992 39.2616782,155.592562 39.2616782,155.741977 C39.2616782,155.919061 39.2934975,156.06294 39.3571372,156.173618 C39.4207768,156.284296 39.5079341,156.339634 39.6186118,156.339634 C39.7385126,156.339634 39.8795479,156.264697 40.0417207,156.114821 L40.3988852,155.758579 L40.4237876,155.741977 L40.4237876,155.741977 L40.5482993,155.858188 L40.1581626,156.289829 L40.1581626,156.289829 L39.8842368,156.563755 C39.7458897,156.702102 39.6448979,156.789259 39.5812583,156.825229 C39.5176186,156.861199 39.4470627,156.879184 39.3695883,156.879184 C39.1869702,156.879184 39.0347908,156.78511 38.9130454,156.596958 C38.7913,156.408806 38.7304282,156.192988 38.7304282,155.949497 C38.7304282,155.846725 38.7501918,155.683251 38.7897193,155.459074 L38.9379477,154.687778 C38.7940668,155.036413 38.567181,155.415478 38.2572837,155.824985 C37.6983616,156.54439 37.1560493,156.904087 36.6303305,156.904087 C36.3148993,156.904087 36.0658783,156.78926 35.8832602,156.559604 C35.7006421,156.329948 35.6093344,156.018672 35.6093344,155.625766 C35.6093344,155.077912 35.7532132,154.523149 36.0409751,153.96146 C36.3287369,153.399771 36.6953511,152.936315 37.1408286,152.571079 C37.5863061,152.205843 38.0303934,152.023227 38.473104,152.023227 C38.799603,152.023227 39.1039619,152.120069 39.3861899,152.313755 L40.7392172,145.532016 L41.6357016,145.108676 Z M39.3114829,152.728794 L39.2284751,153.152134 L39.1611465,153.43436 C39.1082676,153.640957 39.0394021,153.884445 38.9545493,154.164829 C38.8494055,154.491328 38.7055268,154.806754 38.5229087,155.111118 C38.2517484,155.559362 37.9819757,155.902458 37.7135825,156.140415 C37.4451892,156.378372 37.1947848,156.497348 36.9623618,156.497348 C36.763142,156.497348 36.6068122,156.417108 36.4933676,156.256626 C36.3799231,156.096143 36.3232016,155.883092 36.3232016,155.617466 C36.3232016,155.313102 36.3799231,154.974157 36.4933676,154.60062 C36.6068122,154.227083 36.7520744,153.882604 36.9291587,153.567173 C37.1726495,153.141064 37.4313545,152.811803 37.7052817,152.57938 C37.9792089,152.346957 38.2462146,152.230747 38.5063071,152.230747 C38.6833913,152.230747 38.8494053,152.276401 39.004354,152.36771 C39.1593027,152.459019 39.2616779,152.579379 39.3114829,152.728794 Z" id="Booked&amp;Blessed" fill="#000000" fill-rule="nonzero" transform="translate(19.588827, 144.064487) rotate(-270.000000) translate(-19.588827, -144.064487) "></path>
                </g>
            </g>
        </g>
    </g>
</svg>